<svg width="33" height="30" viewBox="0 0 33 30" fill="none" xmlns="http://www.w3.org/2000/svg">
<g clip-path="url(#clip0_2639_481)">
<path d="M24.0625 8.125H24.0763M9.625 2.5H23.375C27.172 2.5 30.25 5.29822 30.25 8.75V21.25C30.25 24.7018 27.172 27.5 23.375 27.5H9.625C5.82804 27.5 2.75 24.7018 2.75 21.25V8.75C2.75 5.29822 5.82804 2.5 9.625 2.5ZM22 14.2125C22.1697 15.2528 21.9742 16.3153 21.4414 17.2488C20.9086 18.1823 20.0656 18.9393 19.0322 19.4121C17.9989 19.8849 16.8279 20.0495 15.6857 19.8824C14.5435 19.7153 13.4884 19.2251 12.6704 18.4815C11.8524 17.7378 11.3131 16.7786 11.1293 15.7403C10.9456 14.7019 11.1266 13.6374 11.6467 12.698C12.1668 11.7586 12.9995 10.9922 14.0264 10.5078C15.0532 10.0234 16.2219 9.84574 17.3663 10C18.5335 10.1574 19.6142 10.6518 20.4486 11.4104C21.283 12.1689 21.8269 13.1513 22 14.2125Z" stroke="#D9D9D9" stroke-width="4" stroke-linecap="round" stroke-linejoin="round"/>
</g>
<defs>
<clipPath id="clip0_2639_481">
<rect width="33" height="30" fill="white"/>
</clipPath>
</defs>
</svg>
