<svg width="41" height="41" viewBox="0 0 41 41" fill="none" xmlns="http://www.w3.org/2000/svg">
<path d="M20.5002 20.5C18.621 20.5 17.0123 19.8309 15.6741 18.4927C14.3359 17.1545 13.6668 15.5458 13.6668 13.6666C13.6668 11.7875 14.3359 10.1788 15.6741 8.8406C17.0123 7.50241 18.621 6.83331 20.5002 6.83331C22.3793 6.83331 23.988 7.50241 25.3262 8.8406C26.6644 10.1788 27.3335 11.7875 27.3335 13.6666C27.3335 15.5458 26.6644 17.1545 25.3262 18.4927C23.988 19.8309 22.3793 20.5 20.5002 20.5ZM6.8335 34.1666V29.3833C6.8335 28.4153 7.08291 27.5258 7.58175 26.7149C8.08058 25.904 8.74227 25.2845 9.56683 24.8562C11.3321 23.9736 13.1259 23.3119 14.9481 22.8711C16.7703 22.4304 18.621 22.2095 20.5002 22.2083C22.3793 22.2072 24.23 22.4281 26.0522 22.8711C27.8745 23.3142 29.6682 23.9759 31.4335 24.8562C32.2592 25.2833 32.9215 25.9029 33.4203 26.7149C33.9191 27.5269 34.168 28.4164 34.1668 29.3833V34.1666H6.8335Z" fill="white"/>
</svg>
